<?xml version="1.0" encoding="utf-8"?>
<!-- Generator: Adobe Illustrator 27.5.0, SVG Export Plug-In . SVG Version: 6.00 Build 0)  -->
<svg version="1.1" xmlns="http://www.w3.org/2000/svg" xmlns:xlink="http://www.w3.org/1999/xlink" x="0px" y="0px"
	 viewBox="0 0 3710 3710" style="enable-background:new 0 0 3710 3710;" xml:space="preserve">
<g id="Background">
	<g>
		<g>
			<rect style="fill:#FFFFFF;" width="3710" height="3710"/>
		</g>
	</g>
</g>
<g id="Illustration">
	<g>
		<path style="fill:#F4F7FA;" d="M1645.998,518.448c-373.805,6.258-952.154,140.967-1118.625,487.145
			c-58.142,120.907-54.205,298.654-46.334,654.148c2.314,104.489,6.151,256.784,33.095,445.747
			c55.973,392.537,94.076,659.762,238.287,815.363c361.348,389.888,1666.623,378.622,2224.012-323.304
			c304.059-382.905,350.836-927.6,72.81-1377.763C2743.144,724.162,2146.436,510.069,1645.998,518.448z"/>
		<g>
			<g>
				<g>
					<linearGradient id="SVGID_1_" gradientUnits="userSpaceOnUse" x1="2064.0098" y1="2077.5752" x2="3233.4153" y2="2077.5752">
						<stop  offset="0" style="stop-color:#FF9085"/>
						<stop  offset="1" style="stop-color:#FB6FBB"/>
					</linearGradient>
					<path style="fill:url(#SVGID_1_);" d="M2270.049,2796.557c-18.527-2.583-56.262-22.671-63.662-31.5
						c-49.244-58.759-149.51-163.467-141.976-240.544c1.287-13.164,68.18-23.781,77.877-35.656
						c40.795-15.94,56.063-19.229,86.442-51.261c89.688-94.569-102.358-280.936,129.638-339.138
						c169.934-42.632,310.638,12.26,299.717-219.896c-10.921-232.156,209.608-649.334,480.766-480.964
						c155.619,96.629-11.409,289.748,65.629,437.079c73.206,140.002,3.584,252.093-164.608,330.938
						c-168.191,78.845-81.701,144.723-37.648,277.147c52.916,159.069-221.709,180.326-349.442,180.558
						C2549.923,2623.508,2288.148,2685.462,2270.049,2796.557z"/>
					<g>
						<defs>
							<path id="SVGID_00000068636401716748605160000009389325333978850474_" d="M2022.921,2503.536
								c36.431,109.558,68.408,222.371,104.424,332.875c73.132,7.052,159.35,13.768,178.05-65.671
								c25.998-110.444,244.837-147.917,347.613-147.619c127.204,0.369,402.24-21.472,349.23-180.388
								c-44.131-132.297-130.535-198.312,37.647-277.127c168.182-78.816,237.771-190.919,164.596-330.938
								c-77.005-147.348,89.976-340.369-65.63-437.073c-271.134-168.502-491.764,249.051-480.723,480.876
								s-130.222,178.304-299.646,219.735c-231.302,56.563-41.832,248.921-129.015,337.3
								C2161.119,2504.79,2109.387,2490.57,2022.921,2503.536z"/>
						</defs>
						<clipPath id="SVGID_00000178206364485274181420000010347255541937077898_">
							<use xlink:href="#SVGID_00000068636401716748605160000009389325333978850474_"  style="overflow:visible;"/>
						</clipPath>
						<g style="opacity:0.5;clip-path:url(#SVGID_00000178206364485274181420000010347255541937077898_);">
							<path style="fill:#FCFDFE;" d="M2137.331,2651.469l-1.275-3.17c559.47-224.876,907.714-719.407,931.548-1322.87l3.417,0.133
								c-11.298,286.023-99.153,557.842-254.068,786.072c-79.797,117.559-176.724,222.589-288.091,312.173
								C2412.971,2517.029,2281.241,2593.625,2137.331,2651.469z"/>
							<path style="fill:#FCFDFE;" d="M3032.935,2506.608c-158.215-50.304-425.217-58.082-595.208-17.342l-0.794-3.323
								c170.491-40.864,438.321-33.053,597.036,17.408L3032.935,2506.608z"/>
							<path style="fill:#FCFDFE;" d="M2246.498,2606.26l-2.062-2.726c69.589-52.643,106.464-134.41,109.601-243.027
								c2.299-79.64-13.25-171.606-46.218-273.345l3.25-1.054c33.088,102.113,48.694,194.468,46.385,274.498
								C2354.287,2470.31,2316.955,2552.959,2246.498,2606.26z"/>
							<path style="fill:#FCFDFE;" d="M2837.541,2078.461l-2.196-2.619c125.304-105.116,304.651-129.677,433.042-131.771
								l0.053,3.417C3140.607,1949.572,2962.078,1973.987,2837.541,2078.461z"/>
							<path style="fill:#FCFDFE;" d="M2993.18,1756.548l-3.397-0.384c19.397-171.442-87.488-325.563-152.926-402.173l2.596-2.219
								C2905.255,1428.805,3012.72,1583.823,2993.18,1756.548z"/>
						</g>
					</g>
				</g>
			</g>
			<g>
				<g>
					<defs>
						<path id="SVGID_00000121965919500252127850000014761649309287986843_" d="M2457.551,2523.693
							c-100.659-12.008-201.246-26.062-301.677-42.158c-1.612,1.323-37.205-191.814,65.146-294.406
							c202.452-198.792,61.844-373.732,20.991-477.848c-65.109-146.737-35.237-326.259,148.499-294.674
							c178.949,26.978,201.561-298.968,167.298-549.514c-27.979-121.821,100.03-271.375,229.339-306.632
							c131.965-38.94,265.228,36.417,309.087,279.367c65.207,281.143-164.601,453.586-248.622,595.798
							c-82.676,139.609,115.625,249.706-41.058,374.304c-131.711,110.63-298.523,190.936-235.223,327.436
							C2636.292,2270.295,2622.708,2381.326,2457.551,2523.693z"/>
					</defs>
					<clipPath id="SVGID_00000050644872451117250080000007503410168286623126_">
						<use xlink:href="#SVGID_00000121965919500252127850000014761649309287986843_"  style="overflow:visible;"/>
					</clipPath>
				</g>
				<g>
					<defs>
						<path id="SVGID_00000177456863030707828950000007190443874317905288_" d="M2457.551,2523.693
							c-100.659-12.008-201.246-26.062-301.677-42.158c-1.612,1.323-37.205-191.814,65.146-294.406
							c202.452-198.792,61.844-373.732,20.991-477.848c-65.109-146.737-35.237-326.259,148.499-294.674
							c178.949,26.978,201.561-298.968,167.298-549.514c-27.979-121.821,100.03-271.375,229.339-306.632
							c131.965-38.94,265.228,36.417,309.087,279.367c65.207,281.143-164.601,453.586-248.622,595.798
							c-82.676,139.609,115.625,249.706-41.058,374.304c-131.711,110.63-298.523,190.936-235.223,327.436
							C2636.292,2270.295,2622.708,2381.326,2457.551,2523.693z"/>
					</defs>
					<clipPath id="SVGID_00000181777658905099581940000007991749305935405757_">
						<use xlink:href="#SVGID_00000177456863030707828950000007190443874317905288_"  style="overflow:visible;"/>
					</clipPath>
					
						<linearGradient id="SVGID_00000112632949600794082110000011012570620431610302_" gradientUnits="userSpaceOnUse" x1="1924.4777" y1="1696.4629" x2="1280.8783" y2="3525.6414" gradientTransform="matrix(-0.8734 -0.487 -0.487 0.8734 5080.3042 1215.7589)">
						<stop  offset="0.0036" style="stop-color:#E38DDD"/>
						<stop  offset="1" style="stop-color:#9571F6"/>
					</linearGradient>
					
						<path style="clip-path:url(#SVGID_00000181777658905099581940000007991749305935405757_);fill:url(#SVGID_00000112632949600794082110000011012570620431610302_);" d="
						M2457.551,2523.693c-100.659-12.008-201.246-26.062-301.677-42.158c-1.612,1.323-37.205-191.814,65.146-294.406
						c202.452-198.792,61.844-373.732,20.991-477.848c-64.474-146.634-33.818-306.503,135.384-310.686
						c187.621-7.894,217.872-283.497,180.412-533.502c-27.979-121.821,100.03-271.375,229.339-306.632
						c131.965-38.94,265.228,36.417,309.087,279.367c65.207,281.143-164.601,453.586-248.622,595.798
						c-82.676,139.609,115.625,249.706-41.058,374.304c-131.711,110.63-298.523,190.936-235.223,327.436
						C2636.292,2270.295,2622.708,2381.326,2457.551,2523.693z"/>
					<g style="opacity:0.5;clip-path:url(#SVGID_00000181777658905099581940000007991749305935405757_);">
						<path style="fill:#FCFDFE;" d="M2323.001,2536.641l-3.414-0.02c-0.053-1.719,90.357-409.796,250.511-807.814
							c21.983-64.397,45.935-129.365,69.099-192.194c129.055-350.044,250.952-680.675,109.621-1045.464l3.183-1.235
							c63.673,164.347,78.702,338.445,45.941,532.244c-29.271,173.146-93.461,347.257-155.542,515.638
							c-23.154,62.809-47.099,127.758-69.099,192.201C2412.501,2129.629,2323.221,2534.245,2323.001,2536.641z"/>
						<path style="fill:#FCFDFE;" d="M2754.231,1211.563l-2.429-2.406c110.505-111.471,243.511-269.625,314.969-354.59
							c53.766-63.933,57.737-68.094,59.833-67.869l-0.214,1.695l0.587,1.572c-2.813,1.667-26.988,30.41-57.594,66.801
							C2997.898,941.77,2864.833,1099.994,2754.231,1211.563z"/>
						<path style="fill:#FCFDFE;" d="M2786.661,1059.982c-46.499-235.427-219.436-329.726-232.556-330.423l0.063-1.166l-1.188-1.954
							c0.667-0.404,1.425-0.868,7.495,1.802c19.68,8.661,65.074,36.725,110.378,86.967
							c60.28,66.848,100.371,148.979,119.158,244.113L2786.661,1059.982z"/>
						<path style="fill:#FCFDFE;" d="M2478.53,1989.028l-3.39-0.407c30.382-252.211-165.866-485.049-251.653-573.45
							c-4.451-4.588-6.016-6.211-6.513-6.947l2.836-1.909c0.361,0.532,2.906,3.155,6.13,6.477
							c61.748,63.628,113.912,130.655,155.045,199.214C2459.987,1743.683,2492.805,1870.532,2478.53,1989.028z"/>
						<path style="fill:#FCFDFE;" d="M2522.102,1864.775l-2.823-1.922c61.187-90.002,159.116-136.314,230.49-159.314
							c76.684-24.711,141.788-28.875,143.303-28.42l1.211,1.633l-1.211,1.642l-0.5-1.607l-0.134,1.667c-0.003,0-0.003,0-0.007,0
							c-0.824,0-64.157,3.11-143.433,28.925C2678.752,1730.256,2582.365,1776.132,2522.102,1864.775z M2892.058,1675.13l0.507,1.627
							L2892.058,1675.13z"/>
						<path style="fill:#FCFDFE;" d="M2338.864,2470.053l-3.417-0.093c1.418-51.195-20.435-138.211-132.608-262.022
							c-6.09-6.72-6.09-6.72-5.933-7.768l3.377,0.5l-1.688-0.25l1.525-0.728c0.32,0.51,2.606,3.032,5.249,5.951
							C2318.306,2330.295,2340.299,2418.232,2338.864,2470.053z"/>
						<path style="fill:#FCFDFE;" d="M2363.049,2373.38l-3.263-1.018c28.413-90.98,170.548-158.934,252.744-191.343
							c2.666-1.051,4.385-1.725,4.992-2.012l1.455,3.093c-0.637,0.299-2.419,1.004-5.195,2.097
							C2532.156,2216.383,2391.035,2283.759,2363.049,2373.38z"/>
					</g>
				</g>
				<g>
					<defs>
						<path id="SVGID_00000052062127357851422570000016969889981909789880_" d="M2457.551,2523.693
							c-100.659-12.008-201.246-26.062-301.677-42.158c-1.612,1.323-37.205-191.814,65.146-294.406
							c202.452-198.792,61.844-373.732,20.991-477.848c-65.109-146.737-35.237-326.259,148.499-294.674
							c178.949,26.978,201.561-298.968,167.298-549.514c-27.979-121.821,100.03-271.375,229.339-306.632
							c131.965-38.94,265.228,36.417,309.087,279.367c65.207,281.143-164.601,453.586-248.622,595.798
							c-82.676,139.609,115.625,249.706-41.058,374.304c-131.711,110.63-298.523,190.936-235.223,327.436
							C2636.292,2270.295,2622.708,2381.326,2457.551,2523.693z"/>
					</defs>
					<clipPath id="SVGID_00000142150722158800329760000011215290990725155757_">
						<use xlink:href="#SVGID_00000052062127357851422570000016969889981909789880_"  style="overflow:visible;"/>
					</clipPath>
				</g>
			</g>
		</g>
		<g>
			<g>
				<g>
					
						<linearGradient id="SVGID_00000014626884048706112820000000850010955947185590_" gradientUnits="userSpaceOnUse" x1="2854.1565" y1="4518.9409" x2="1062.2035" y2="6145.1187" gradientTransform="matrix(0 -1 1 0 -3755.802 3738.6064)">
						<stop  offset="0.0036" style="stop-color:#26264F"/>
						<stop  offset="1" style="stop-color:#444B8C"/>
					</linearGradient>
					<path style="fill:url(#SVGID_00000014626884048706112820000000850010955947185590_);" d="M2503.413,2853.565
						c0,49.7-35.263,92.194-78.745,94.732L747.297,3046.2c-49.816,2.908-90.486-38.209-90.486-91.663V548.35
						c0-53.456,40.67-95.298,90.486-93.28l1677.371,67.976c43.483,1.762,78.745,43.627,78.745,93.329V2853.565z"/>
					
						<linearGradient id="SVGID_00000010998103850507076660000003310537088910019768_" gradientUnits="userSpaceOnUse" x1="741.9868" y1="1752.0756" x2="2785.6418" y2="1695.1317">
						<stop  offset="0" style="stop-color:#444B8C"/>
						<stop  offset="0.9964" style="stop-color:#26264F"/>
					</linearGradient>
					<path style="fill:url(#SVGID_00000010998103850507076660000003310537088910019768_);" d="M2552.661,2853.565
						c0,49.7-35.263,92.194-78.745,94.732L796.544,3046.2c-49.816,2.908-90.486-38.209-90.486-91.663V548.35
						c0-53.456,40.67-95.298,90.486-93.28l1677.372,67.976c43.482,1.762,78.745,43.627,78.745,93.329V2853.565z"/>
					
						<linearGradient id="SVGID_00000091723307489234417850000003644114649617256628_" gradientUnits="userSpaceOnUse" x1="1500.442" y1="5944.1162" x2="2512.7915" y2="4706.7998" gradientTransform="matrix(0 -1 1 0 -3755.802 3738.6064)">
						<stop  offset="0" style="stop-color:#444B8C"/>
						<stop  offset="0.9964" style="stop-color:#26264F"/>
					</linearGradient>
					<path style="fill:url(#SVGID_00000091723307489234417850000003644114649617256628_);" d="M748.258,549.903v2402.326
						c0,28.571,21.641,50.507,48.287,48.998l1326.62-75.154l350.75-19.87c23.299-1.32,42.152-23.99,42.152-50.637V615.026
						c0-26.647-18.854-48.981-42.152-49.885l-363.414-14.104L796.545,500.044C769.899,499.01,748.258,521.332,748.258,549.903z"/>
					
						<linearGradient id="SVGID_00000072269456770561598150000006641018312989865407_" gradientUnits="userSpaceOnUse" x1="1963.2321" y1="520.3869" x2="633.5791" y2="5084.7397">
						<stop  offset="0" style="stop-color:#FFC444"/>
						<stop  offset="0.9964" style="stop-color:#F36F56"/>
					</linearGradient>
					<path style="fill:url(#SVGID_00000072269456770561598150000006641018312989865407_);" d="M2492.821,2751.958
						c0,9.912-7.946,18.382-17.715,18.882l-1679.92,85.9c-11.163,0.571-20.255-7.593-20.255-18.2V549.951
						c0-10.607,9.092-18.896,20.255-18.476l1679.92,63.177c9.77,0.367,17.715,8.732,17.715,18.644V2751.958z"/>
					
						<linearGradient id="SVGID_00000031186775673128287790000003643974477719315126_" gradientUnits="userSpaceOnUse" x1="1677.8995" y1="2753.709" x2="1644.1068" y2="3011.0535">
						<stop  offset="0" style="stop-color:#444B8C"/>
						<stop  offset="0.9964" style="stop-color:#26264F"/>
					</linearGradient>
					<path style="fill:url(#SVGID_00000031186775673128287790000003643974477719315126_);" d="M1832.374,2900.895l-341.118,18.76
						c-18.238,1.003-33.042-11.642-33.042-28.246v-1.247c0-16.604,14.804-30.842,33.042-31.801l341.118-17.94
						c17.728-0.933,32.081,11.558,32.081,27.898v1.227C1864.455,2885.885,1850.102,2899.92,1832.374,2900.895z"/>
					<path style="fill:#FFFFFF;" d="M1680.422,534.346c0,8.833-7.813,15.695-17.459,15.327c-9.653-0.368-17.483-7.838-17.483-16.682
						c0-8.845,7.83-15.707,17.483-15.326C1672.609,518.045,1680.422,525.513,1680.422,534.346z"/>
				</g>
				<g style="opacity:0.3;">
					<path style="fill:#FFFFFF;" d="M2108.685,2696.091c-6.838-146.619,156.182-232.611,140.521-439.445
						c-1.413-18.661-15.981-178.721-144.803-287.214c-115.681-97.425-212.913-60.77-427.02-138.479
						c-150.058-54.462-318.754-115.691-386.984-238.537c-135.495-243.957,251.689-487.628,172.442-803.453
						c-22.708-90.497-86.823-201.428-256.163-317.273l-410.133-16.621c-49.816-2.019-90.486,39.823-90.486,93.279v2406.186
						c0,53.456,40.67,94.572,90.486,91.665l1528.32-89.204C2162.079,2862.891,2112.248,2772.483,2108.685,2696.091z"/>
				</g>
			</g>
			<g>
				<path style="fill:#F4F7FA;" d="M2367.516,814.333L904.012,772.907c-15.253-0.432-27.426,10.967-27.426,25.461v1901.218
					c0,14.494,12.789,26.124,28.042,25.977l1462.683-70.677c13.768-0.132,23.895-11.388,23.895-25.14V839.938
					C2391.206,826.187,2381.284,814.722,2367.516,814.333z"/>
				<path style="fill:#FFFFFF;" d="M1404.04,700.265c0,14.503-11.961,25.89-26.73,25.434l-474.024-14.66
					c-15.278-0.472-27.675-12.83-27.675-27.601l0,0c0-14.771,12.397-26.339,27.675-25.839l474.024,15.53
					C1392.079,673.614,1404.04,685.762,1404.04,700.265L1404.04,700.265z"/>
			</g>
		</g>
		<g>
			
				<linearGradient id="SVGID_00000152960769796435149290000017605597916665929613_" gradientUnits="userSpaceOnUse" x1="2376.3877" y1="909.0977" x2="1817.0447" y2="1738.1957">
				<stop  offset="0" style="stop-color:#893976"/>
				<stop  offset="1" style="stop-color:#311944"/>
			</linearGradient>
			<path style="fill:url(#SVGID_00000152960769796435149290000017605597916665929613_);" d="M1856.512,1122.539
				c0,0,75.022,28.509,120.437,4.926c45.417-23.583,146.838-40.907,225.217-4.926c78.376,35.982,108.516,46.345,108.516,46.345
				s-85.193-45.705-92.821-103.684c-7.63-57.978-12.188-119.112-42.539-151.144c-30.351-32.03-61.705-26.237-85.323-8.947
				c-23.618,17.29-68.403,2.166-72.285-28.046c-3.88-30.209,29.642-58.042,52.047-66.849c22.405-8.808,103.35,56.647,133.291,73.507
				c29.942,16.859,220.356,133.641,291.762,300.376c0,0,56.537,51.944,7.178,109.655c0,0-103.364,225.925-256.487,237.826
				c-153.121,11.899-272.148,112.572-289.108,156.327C1939.438,1731.661,1856.512,1122.539,1856.512,1122.539z"/>
			
				<linearGradient id="SVGID_00000051383867199775582890000000859779487531315843_" gradientUnits="userSpaceOnUse" x1="2414.6028" y1="934.8803" x2="1855.2609" y2="1763.9766">
				<stop  offset="0" style="stop-color:#893976"/>
				<stop  offset="1" style="stop-color:#311944"/>
			</linearGradient>
			<path style="opacity:0.3;fill:url(#SVGID_00000051383867199775582890000000859779487531315843_);" d="M2502.24,1192.326
				c-1.354,10.258-4.866,18.239-11.268,22.851c-18.299,13.183-42.645-13.685-81.448-11.122
				c-73.782,4.874-77.323,108.063-152.728,136.86c-67.578,25.809-114.666-38-275.704-81.323
				c-40.139-10.799-76.878-17.503-108.377-21.725c25.022,174.318,71.466,481.558,83.682,450.04
				c16.961-43.755,135.987-144.428,289.108-156.327c153.123-11.901,256.487-237.826,256.487-237.826
				C2539.606,1249.773,2515.735,1209.17,2502.24,1192.326z"/>
			
				<linearGradient id="SVGID_00000032624106249139743730000008061489297486767764_" gradientUnits="userSpaceOnUse" x1="1233.1321" y1="1748.4336" x2="2078.3408" y2="1748.4336">
				<stop  offset="0.0036" style="stop-color:#E38DDD"/>
				<stop  offset="1" style="stop-color:#9571F6"/>
			</linearGradient>
			<path style="fill:url(#SVGID_00000032624106249139743730000008061489297486767764_);" d="M1233.132,1257.316
				c0,0,226.549-168.338,670.778-139.257c20.775,40.721,36.83,74.464,47.429,97.235c100.67,216.277,118.292,321.956,124.282,366.576
				c0,0,3.233,10.258,2.65,21.818c-1.778,35.224-84.258,549.836-146.766,677.869c0,0-241.728,191.027-503.675,46.682
				c0,0,19.448-139.235,0.796-253.603c-18.65-114.366-138.774-423.346-138.774-423.346S1355.769,1533.281,1233.132,1257.316z"/>
			
				<linearGradient id="SVGID_00000145056452462937214390000007081148821011208112_" gradientUnits="userSpaceOnUse" x1="1233.1321" y1="1792.121" x2="1868.1761" y2="1792.121">
				<stop  offset="0.0036" style="stop-color:#E38DDD"/>
				<stop  offset="1" style="stop-color:#9571F6"/>
			</linearGradient>
			<path style="opacity:0.3;fill:url(#SVGID_00000145056452462937214390000007081148821011208112_);" d="M1719.272,1789.182
				c-89.387-173.814-240.825-155.81-333.225-337.192c-45.496-89.309-52.913-180.303-49.736-249.933
				c-68.608,29.572-103.178,55.259-103.178,55.259c122.637,275.966,56.719,393.975,56.719,393.975s120.125,308.98,138.774,423.346
				c18.651,114.368-0.796,253.603-0.796,253.603c180.592,99.513,351.559,39.629,440.347-7.171
				c-24.555-32.602-47.989-70.222-67.582-113.373C1715.95,2021.274,1797.373,1941.05,1719.272,1789.182z"/>
			
				<linearGradient id="SVGID_00000010293175467931279270000007441252083123230601_" gradientUnits="userSpaceOnUse" x1="1619.1793" y1="1354.7452" x2="1501.6611" y2="727.9839">
				<stop  offset="0" style="stop-color:#893976"/>
				<stop  offset="1" style="stop-color:#311944"/>
			</linearGradient>
			<path style="fill:url(#SVGID_00000010293175467931279270000007441252083123230601_);" d="M1524.735,990.823
				c0,0-10.068,105.672-47.601,136.641c-37.533,30.969-81.478,51.51-81.478,51.51l141.49,40.687
				c60.913,17.516,126.52,0.015,170.616-45.512l57.075-58.927c0,0-84.666-7.996-91.347-15.875
				c-6.681-7.879-32.195-108.523-32.195-108.523H1524.735z"/>
			
				<linearGradient id="SVGID_00000176729505555091548760000001124409140646883478_" gradientUnits="userSpaceOnUse" x1="1507.0538" y1="1186.7615" x2="1606.2283" y2="786.0969">
				<stop  offset="0" style="stop-color:#444B8C"/>
				<stop  offset="0.9964" style="stop-color:#26264F"/>
			</linearGradient>
			<path style="fill:url(#SVGID_00000176729505555091548760000001124409140646883478_);" d="M1701.637,920.539
				c24.9-19.924,37.578-42.215,42.907-51.797c12.226-21.985,32.21-57.92,21.158-93.885c-12.796-41.641-62.545-68.186-104.464-68.761
				c-46.678-0.641-49.833,31.387-124.588,52.092c-54.819,15.182-79.017,5.131-94.843,27.296
				c-18.173,25.452-6.771,67.433-1.635,86.349c5.906,21.748,19.695,53.209,23.004,60.413c12.85,27.986,11.839,26.93,15.847,35.116
				c9.635,19.659,28.983,53.304,67.944,95.265c4.773-12.242,11.537-27.281,21.239-43.271c3.731-6.152,18.632-30.149,38.827-48.992
				C1642.132,937.613,1662.835,951.586,1701.637,920.539z"/>
			
				<linearGradient id="SVGID_00000088855446370533750620000000634351421397590963_" gradientUnits="userSpaceOnUse" x1="1622.0437" y1="1078.7859" x2="1499.0681" y2="634.4865">
				<stop  offset="0" style="stop-color:#893976"/>
				<stop  offset="1" style="stop-color:#311944"/>
			</linearGradient>
			<path style="fill:url(#SVGID_00000088855446370533750620000000634351421397590963_);" d="M1502.488,1011.186
				c0,0,34.264,77.879,122.411,83.886c78.929,5.376,113.866-168.555,68.871-212.481c-15.008-14.651-47.709-24.276-75.881-20.301
				c-16.637,2.347-22.957,8.285-50.219,11.596c-25.142,3.048-31.652-0.565-39.811,4.63c-10.211,6.492-19.464,24.528-11.008,77.873
				c-12.902-17.115-30.049-25.311-43.542-21.017c-2.155,0.686-8.018,3.622-11.779,8.755
				C1447.909,962.707,1462.783,990.751,1502.488,1011.186z"/>
			
				<linearGradient id="SVGID_00000149343806064886824000000015454310268610141117_" gradientUnits="userSpaceOnUse" x1="54.3357" y1="1200.0326" x2="117.8077" y2="81.3241" gradientTransform="matrix(0.9368 -0.3498 0.3498 0.9368 781.2418 840.1516)">
				<stop  offset="0" style="stop-color:#893976"/>
				<stop  offset="1" style="stop-color:#311944"/>
			</linearGradient>
			<path style="fill:url(#SVGID_00000149343806064886824000000015454310268610141117_);" d="M1240.727,1258.222
				c0,0-38.41,30.979-134.798,83.149c-96.388,52.171-197.704,263.525-177.31,453.91c0,0-39.909,57.586,14.585,83.146
				c0,0,139.406,170.83,317.125,141.881c177.717-28.948,255.155-81.824,278.828-78.097c23.674,3.728,8.59-36.677-1.929-47.839
				c-10.518-11.162-12.464-7.63-52.177-8.423c-39.714-0.794-161.624-116.572-278.268-80.29c0,0,134.823-85.199,172.339-216.672
				C1416.637,1457.516,1240.727,1258.222,1240.727,1258.222z"/>
			
				<linearGradient id="SVGID_00000023998583079729906870000004703614088082263194_" gradientUnits="userSpaceOnUse" x1="99.7733" y1="1202.5875" x2="163.2421" y2="83.9345" gradientTransform="matrix(0.9368 -0.3498 0.3498 0.9368 781.2418 840.1516)">
				<stop  offset="0" style="stop-color:#893976"/>
				<stop  offset="1" style="stop-color:#311944"/>
			</linearGradient>
			<path style="opacity:0.3;fill:url(#SVGID_00000023998583079729906870000004703614088082263194_);" d="M1284.654,1540.664
				c-54.116,84.077-151.49,77.554-204.329,184.26c-33.454,67.559-33.617,149.325-9.985,160.401
				c20.018,9.381,46.314-37.023,109.069-70.363c12.544-6.664,25.193-12.036,37.804-16.415
				c32.347-22.995,130.729-100.292,161.908-209.559c21.588-75.655-27.497-173.764-73.067-243.436
				C1326.993,1445.756,1307.865,1504.604,1284.654,1540.664z"/>
			
				<linearGradient id="SVGID_00000132784545593001943900000002676009217561881016_" gradientUnits="userSpaceOnUse" x1="1591.9301" y1="1829.7966" x2="1143.903" y2="384.669">
				<stop  offset="0" style="stop-color:#893976"/>
				<stop  offset="1" style="stop-color:#311944"/>
			</linearGradient>
			<path style="fill:url(#SVGID_00000132784545593001943900000002676009217561881016_);" d="M1469.114,1895.477
				c0,0,81.411-7.317,111.131-29.268c29.721-21.951,112.051-87.011,133.995-86.493c21.944,0.518-21.958,22.469-34.762,38.933
				c-12.805,16.463,21.951,64.024-1.829,96.95c-23.78,32.927-138.492,26.612-138.492,26.612L1469.114,1895.477z"/>
		</g>
		<g>
			
				<linearGradient id="SVGID_00000169555304525866356760000003618800763832944011_" gradientUnits="userSpaceOnUse" x1="2451.3384" y1="1181.2563" x2="1594.1329" y2="2743.2764">
				<stop  offset="0" style="stop-color:#FFFFFF"/>
				<stop  offset="0.9964" style="stop-color:#EBEFF2"/>
			</linearGradient>
			<polygon style="fill:url(#SVGID_00000169555304525866356760000003618800763832944011_);" points="2585.227,2445.748 
				1809.703,2479.568 1809.703,841.993 2585.227,861.39 			"/>
			<polygon style="fill:#D8DEE8;" points="2492.878,1010.575 1910.333,999.812 1910.333,913.79 2492.878,926.662 			"/>
			<polygon style="fill:#D8DEE8;" points="2135.51,1335.679 1910.333,1334.692 1910.333,1113.818 2135.51,1116.898 			"/>
			<polygon style="fill:#D8DEE8;" points="2492.878,1147.818 2173.93,1143.814 2173.93,1117.423 2492.878,1121.786 			"/>
			<polygon style="fill:#D8DEE8;" points="2492.878,1205.926 2173.93,1202.721 2173.93,1176.33 2492.878,1179.894 			"/>
			<polygon style="fill:#D8DEE8;" points="2135.51,1645.447 1910.333,1647.423 1910.333,1426.549 2135.51,1426.666 			"/>
			<polygon style="fill:#D8DEE8;" points="2492.878,1452.883 2173.93,1453.076 2173.93,1426.685 2492.878,1426.851 			"/>
			<polygon style="fill:#D8DEE8;" points="2492.878,1510.991 2173.93,1511.983 2173.93,1485.593 2492.878,1484.958 			"/>
			<polygon style="fill:#D8DEE8;" points="2135.51,1955.215 1910.333,1960.154 1910.333,1739.28 2135.51,1736.433 			"/>
			<polygon style="fill:#D8DEE8;" points="2492.878,1757.948 2173.93,1762.338 2173.93,1735.948 2492.878,1731.916 			"/>
			<polygon style="fill:#D8DEE8;" points="2492.878,1816.055 2173.93,1821.245 2173.93,1794.855 2492.878,1790.023 			"/>
			<polygon style="fill:#D8DEE8;" points="2135.51,2264.982 1910.333,2272.885 1910.333,2052.011 2135.51,2046.201 			"/>
			<polygon style="fill:#D8DEE8;" points="2492.878,2063.013 2173.93,2071.6 2173.93,2045.21 2492.878,2036.98 			"/>
			<polygon style="fill:#D8DEE8;" points="2492.878,2121.12 2173.93,2130.507 2173.93,2104.117 2492.878,2095.088 			"/>
		</g>
		
			<linearGradient id="SVGID_00000022562357094464069750000009048804036601502629_" gradientUnits="userSpaceOnUse" x1="2136.978" y1="835.8286" x2="2106.2185" y2="891.8795">
			<stop  offset="0" style="stop-color:#893976"/>
			<stop  offset="1" style="stop-color:#311944"/>
		</linearGradient>
		<path style="fill:url(#SVGID_00000022562357094464069750000009048804036601502629_);" d="M2069.761,810.214
			c0,0,86.261,22.221,104.168,31.779c17.907,9.558,1.392,72.064,1.392,72.064S2061.268,868.235,2069.761,810.214z"/>
		<g>
			<g>
				
					<linearGradient id="SVGID_00000092430592171446972650000001382624964468012427_" gradientUnits="userSpaceOnUse" x1="906.2767" y1="2792.9038" x2="1402.7313" y2="2792.9038">
					<stop  offset="0" style="stop-color:#FFFFFF"/>
					<stop  offset="0.9964" style="stop-color:#EBEFF2"/>
				</linearGradient>
				<path style="fill:url(#SVGID_00000092430592171446972650000001382624964468012427_);" d="M1402.731,2402.427H906.277v77.892
					c0,29.719,1.73,59.413,5.182,88.931l64.361,550.433c2.936,25.109,21.808,45.328,46.603,50.259
					c91.197,18.138,179.308,17.623,264.626,0.23c24.589-5.013,43.188-25.243,46.103-50.167l64.399-550.755
					c3.451-29.518,5.182-59.212,5.182-88.931V2402.427z"/>
				
					<linearGradient id="SVGID_00000079451721581354471150000007180055605973859769_" gradientUnits="userSpaceOnUse" x1="906.2769" y1="2792.6067" x2="1402.7314" y2="2792.6067">
					<stop  offset="0.0036" style="stop-color:#E38DDD"/>
					<stop  offset="1" style="stop-color:#9571F6"/>
				</linearGradient>
				<path style="opacity:0.3;fill:url(#SVGID_00000079451721581354471150000007180055605973859769_);" d="M906.277,2402.427v56.904
					c37.334-5.427,95.263-7.485,158.784,15.911c19.957,7.35,149.297,54.986,173.928,157.364
					c25.803,107.244-92.24,154.252-75.921,292.641c9.437,80.026,53.1,99.839,46.933,173.928
					c-2.596,31.187-12.961,59.144-26.922,83.613c35.115-1.434,69.771-5.644,103.969-12.615
					c24.589-5.013,43.188-25.242,46.103-50.167l64.399-550.753c3.452-29.519,5.182-59.212,5.182-88.932v-77.892H906.277z"/>
			</g>
			
				<linearGradient id="SVGID_00000088811034678893862430000015139327427881798796_" gradientUnits="userSpaceOnUse" x1="1215.1234" y1="2135.3245" x2="1159.2179" y2="2332.0293">
				<stop  offset="0" style="stop-color:#AA80F9"/>
				<stop  offset="0.9964" style="stop-color:#6165D7"/>
			</linearGradient>
			<path style="fill:url(#SVGID_00000088811034678893862430000015139327427881798796_);" d="M1408.063,2352.681
				c-11.786-103.845-120.798-185.204-253.559-185.204s-241.773,81.359-253.559,185.204H1408.063z"/>
			
				<linearGradient id="SVGID_00000088108360985485610170000012980666227064577938_" gradientUnits="userSpaceOnUse" x1="1164.4111" y1="2327.3533" x2="1120.9291" y2="2557.1875">
				<stop  offset="0" style="stop-color:#AA80F9"/>
				<stop  offset="0.9964" style="stop-color:#6165D7"/>
			</linearGradient>
			<path style="fill:url(#SVGID_00000088108360985485610170000012980666227064577938_);" d="M881.667,2327.642v104.183
				c0,16.456,545.675,16.456,545.675,0v-104.183C1427.341,2308.117,881.665,2308.117,881.667,2327.642z"/>
			<path style="fill:#FFFFFF;" d="M937.899,2340.323v35.484c0,5.605,252.492,5.605,252.492,0v-35.484
				C1190.391,2333.673,937.899,2333.673,937.899,2340.323z"/>
			
				<linearGradient id="SVGID_00000135665526297899856550000014097807797228216735_" gradientUnits="userSpaceOnUse" x1="1027.375" y1="2243.0796" x2="1058.4336" y2="2079.5044">
				<stop  offset="0" style="stop-color:#AA80F9"/>
				<stop  offset="0.9964" style="stop-color:#6165D7"/>
			</linearGradient>
			<path style="fill:url(#SVGID_00000135665526297899856550000014097807797228216735_);" d="M1075.723,2259.825
				c-26.061,7.907-52.121,7.906-78.181,0c-8.759-2.658-14.797-10.68-14.797-19.833l0-93.282h107.776l0,93.282
				C1090.52,2249.146,1084.482,2257.167,1075.723,2259.825z"/>
			
				<linearGradient id="SVGID_00000116918537703393464110000015148821534173424038_" gradientUnits="userSpaceOnUse" x1="1050.9342" y1="2093.1772" x2="988.817" y2="2287.8115">
				<stop  offset="0" style="stop-color:#444B8C"/>
				<stop  offset="0.9964" style="stop-color:#26264F"/>
			</linearGradient>
			<path style="fill:url(#SVGID_00000116918537703393464110000015148821534173424038_);" d="M1062.529,2093.688h-51.793
				c-21.833,0-39.532,17.699-39.532,39.531v13.585c0,7.572,6.139,13.711,13.711,13.711h103.436c7.572,0,13.71-6.139,13.71-13.711
				v-13.585C1102.061,2111.387,1084.362,2093.688,1062.529,2093.688z"/>
		</g>
		<g>
			<g>
				
					<linearGradient id="SVGID_00000052823925450498444840000013902759725242323350_" gradientUnits="userSpaceOnUse" x1="1946.9102" y1="2704.4023" x2="1725.6948" y2="2885.9783" gradientTransform="matrix(0.9988 -0.0496 0.0496 0.9988 87.8808 63.691)">
					<stop  offset="0" style="stop-color:#FF9085"/>
					<stop  offset="1" style="stop-color:#FB6FBB"/>
				</linearGradient>
				<path style="fill:url(#SVGID_00000052823925450498444840000013902759725242323350_);" d="M2047.488,2919.596
					c6.589,132.803-62.879,248.571-157.064,258.783c-96.354,10.447-181.675-93.096-188.541-231.489
					c-6.866-138.393,67.554-254.551,164.189-259.345C1960.53,2682.858,2040.899,2786.794,2047.488,2919.596z"/>
				
					<linearGradient id="SVGID_00000011751956487363499860000011206300982815408023_" gradientUnits="userSpaceOnUse" x1="1927.8734" y1="2682.6597" x2="1707.4368" y2="2863.5962" gradientTransform="matrix(0.9988 -0.0496 0.0496 0.9988 87.8808 63.691)">
					<stop  offset="0" style="stop-color:#FF9085"/>
					<stop  offset="1" style="stop-color:#FB6FBB"/>
				</linearGradient>
				<polygon style="fill:url(#SVGID_00000011751956487363499860000011206300982815408023_);" points="1890.423,3178.379 
					1792.732,3188.971 1768.096,2692.406 1866.071,2687.545 				"/>
				
					<linearGradient id="SVGID_00000145059960356676572720000010933724085574773656_" gradientUnits="userSpaceOnUse" x1="2428.644" y1="3616.0339" x2="2104.4707" y2="2769.2151" gradientTransform="matrix(0.9955 0.0947 -0.0947 0.9955 -120.3904 -269.5662)">
					<stop  offset="0" style="stop-color:#311944"/>
					<stop  offset="1" style="stop-color:#A03976"/>
				</linearGradient>
				<path style="fill:url(#SVGID_00000145059960356676572720000010933724085574773656_);" d="M1959.525,2926.543
					c6.659,134.225-64.371,251.323-160.616,261.758c-98.486,10.678-185.652-93.925-192.595-233.863
					c-6.943-139.939,69.204-257.439,167.976-262.34C1870.816,2687.309,1952.866,2792.317,1959.525,2926.543z"/>
			</g>
			
				<linearGradient id="SVGID_00000090281044187856794060000005854440674249213878_" gradientUnits="userSpaceOnUse" x1="1743.9772" y1="3276.301" x2="1977.1189" y2="2799.6567" gradientTransform="matrix(0.9955 0.0947 -0.0947 0.9955 -120.3904 -269.5662)">
				<stop  offset="0" style="stop-color:#FF9085"/>
				<stop  offset="1" style="stop-color:#FB6FBB"/>
			</linearGradient>
			<path style="fill:url(#SVGID_00000090281044187856794060000005854440674249213878_);" d="M1766.925,3006.82l-717.652,73.571
				l-14.018-136.74l717.652-73.571c37.76-3.871,71.508,23.601,75.379,61.361v0C1832.157,2969.2,1804.685,3002.949,1766.925,3006.82z
				"/>
			<g>
				
					<linearGradient id="SVGID_00000085247638041677086720000010916733774615371957_" gradientUnits="userSpaceOnUse" x1="1083.5659" y1="2725.801" x2="862.3506" y2="2907.3767" gradientTransform="matrix(0.9988 -0.0496 0.0496 0.9988 87.8808 63.691)">
					<stop  offset="0" style="stop-color:#FF9085"/>
					<stop  offset="1" style="stop-color:#FB6FBB"/>
				</linearGradient>
				<path style="fill:url(#SVGID_00000085247638041677086720000010916733774615371957_);" d="M1186.241,2983.791
					c6.589,132.803-62.88,248.571-157.064,258.783c-96.354,10.447-181.675-93.096-188.542-231.489
					c-6.866-138.393,67.555-254.551,164.19-259.346C1099.283,2747.053,1179.652,2850.989,1186.241,2983.791z"/>
				
					<linearGradient id="SVGID_00000105428302771276618430000011056496717820557988_" gradientUnits="userSpaceOnUse" x1="1064.5294" y1="2704.0581" x2="844.0928" y2="2884.9949" gradientTransform="matrix(0.9988 -0.0496 0.0496 0.9988 87.8808 63.691)">
					<stop  offset="0" style="stop-color:#FF9085"/>
					<stop  offset="1" style="stop-color:#FB6FBB"/>
				</linearGradient>
				<polygon style="fill:url(#SVGID_00000105428302771276618430000011056496717820557988_);" points="1029.177,3242.573 
					931.485,3253.165 906.849,2756.601 1004.825,2751.739 				"/>
				
					<linearGradient id="SVGID_00000084515233394096219960000011105008023635749054_" gradientUnits="userSpaceOnUse" x1="1712.4524" y1="3830.1799" x2="1275.8124" y2="3029.6743" gradientTransform="matrix(0.9955 0.0947 -0.0947 0.9955 -120.3904 -269.5662)">
					<stop  offset="0" style="stop-color:#311944"/>
					<stop  offset="1" style="stop-color:#A03976"/>
				</linearGradient>
				<path style="fill:url(#SVGID_00000084515233394096219960000011105008023635749054_);" d="M1098.278,2990.738
					c6.66,134.226-64.371,251.323-160.616,261.759c-98.486,10.677-185.652-93.925-192.595-233.864
					c-6.943-139.939,69.204-257.439,167.976-262.339C1009.569,2751.504,1091.619,2856.512,1098.278,2990.738z"/>
			</g>
			<g>
				
					<linearGradient id="SVGID_00000078726263542647350210000002715344386091429028_" gradientUnits="userSpaceOnUse" x1="785.1182" y1="2908.2861" x2="723.4956" y2="2958.8665" gradientTransform="matrix(0.9988 -0.0496 0.0496 0.9988 87.8808 63.691)">
					<stop  offset="0" style="stop-color:#FF9085"/>
					<stop  offset="1" style="stop-color:#FB6FBB"/>
				</linearGradient>
				<path style="fill:url(#SVGID_00000078726263542647350210000002715344386091429028_);" d="M983.129,2999.552
					c1.835,36.994-17.516,69.243-43.753,72.088c-26.841,2.91-50.608-25.933-52.521-64.485
					c-1.912-38.551,18.818-70.908,45.737-72.244C958.906,2933.606,981.294,2962.558,983.129,2999.552z"/>
				
					<linearGradient id="SVGID_00000082339519240624725530000013810469067995171734_" gradientUnits="userSpaceOnUse" x1="779.8151" y1="2902.2295" x2="718.4096" y2="2952.6316" gradientTransform="matrix(0.9988 -0.0496 0.0496 0.9988 87.8808 63.691)">
					<stop  offset="0" style="stop-color:#FF9085"/>
					<stop  offset="1" style="stop-color:#FB6FBB"/>
				</linearGradient>
				<polygon style="fill:url(#SVGID_00000082339519240624725530000013810469067995171734_);" points="939.377,3071.64 
					912.164,3074.59 905.301,2936.265 932.594,2934.911 				"/>
				
					<linearGradient id="SVGID_00000138540280072938142870000005124526231357077171_" gradientUnits="userSpaceOnUse" x1="1101.6729" y1="2820.0486" x2="1432.4595" y2="3305.2019" gradientTransform="matrix(0.9955 0.0947 -0.0947 0.9955 -120.3904 -269.5662)">
					<stop  offset="0" style="stop-color:#311944"/>
					<stop  offset="1" style="stop-color:#A03976"/>
				</linearGradient>
				<path style="fill:url(#SVGID_00000138540280072938142870000005124526231357077171_);" d="M958.626,3001.488
					c1.855,37.39-17.931,70.009-44.742,72.916c-27.435,2.974-51.716-26.164-53.65-65.146c-1.934-38.982,19.278-71.713,46.792-73.078
					C933.915,2934.846,956.771,2964.097,958.626,3001.488z"/>
			</g>
		</g>
	</g>
</g>
</svg>
